<svg xmlns="http://www.w3.org/2000/svg" fill="none" viewBox="0 0 48 48" id="Book-2--Streamline-Sharp-Material">
  <desc>
    Book 2 Streamline Icon: https://streamlinehq.com
  </desc>
  <path fill="#000000" d="M14.5 44c-1.7953 0 -3.3275 -0.6345 -4.5965 -1.9035C8.6345 40.8275 8 39.2953 8 37.5v-27c0 -1.79533 0.6345 -3.3275 1.9035 -4.5965C11.1725 4.6345 12.7047 4 14.5 4H40v30c-0.8667 0 -1.5833 0.35 -2.15 1.05 -0.5667 0.7 -0.85 1.5167 -0.85 2.45 0 0.9333 0.2833 1.75 0.85 2.45 0.5667 0.7 1.2833 1.05 2.15 1.05v3H14.5ZM11 32c0.5 -0.3333 1.0417 -0.5833 1.625 -0.75 0.5833 -0.1667 1.2083 -0.25 1.875 -0.25H16V7h-1.5c-0.9723 0 -1.7987 0.34033 -2.479 1.021C11.3403 8.70133 11 9.52767 11 10.5V32Zm8 -1h18V7H19v24Zm-4.523 10H34.95c-0.3 -0.5 -0.5333 -1.05 -0.7 -1.65 -0.1667 -0.6 -0.25 -1.2167 -0.25 -1.85 0 -0.6667 0.0833 -1.2917 0.25 -1.875 0.1667 -0.5833 0.4167 -1.125 0.75 -1.625H14.4805c-0.9537 0 -1.7722 0.3403 -2.4555 1.021C11.3417 35.7013 11 36.5277 11 37.5c0 0.9667 0.3417 1.7917 1.025 2.475 0.6833 0.6833 1.5007 1.025 2.452 1.025Z" stroke-width="1"></path>
</svg>
