<svg xmlns="http://www.w3.org/2000/svg" viewBox="0 0 576 576" id="Crown--Streamline-Font-Awesome">
  <desc>
    Crown Streamline Icon: https://streamlinehq.com
  </desc>
<!--! Font Awesome Free 6.5.2 by @fontawesome - https://fontawesome.com License - https://fontawesome.com/license/free (Icons: CC BY 4.0, Fonts: SIL OFL 1.1, Code: MIT License) Copyright 2024 Fonticons, Inc.-->
  <path d="M308.58 141c11.172 -6.86 18.62 -19.306 18.62 -33.32 0 -21.658 -17.542 -39.2 -39.2 -39.2s-39.2 17.542 -39.2 39.2c0 14.112 7.448 26.46 18.62 33.32l-56.154 112.308c-8.918 17.836 -32.046 22.932 -47.628 10.486L76.32 193.92c4.9 -6.566 7.84 -14.7 7.84 -23.52 0 -21.658 -17.542 -39.2 -39.2 -39.2s-39.2 17.542 -39.2 39.2 17.542 39.2 39.2 39.2h0.686l44.786 246.372c5.39 29.792 31.36 51.548 61.74 51.548h271.656c30.282 0 56.252 -21.658 61.74 -51.548L530.354 209.6h0.686c21.658 0 39.2 -17.542 39.2 -39.2s-17.542 -39.2 -39.2 -39.2 -39.2 17.542 -39.2 39.2c0 8.82 2.94 16.954 7.84 23.52l-87.318 69.874c-15.582 12.446 -38.71 7.35 -47.628 -10.486L308.58 141Z" fill="#000000" stroke-width="1"></path>
</svg>
