<svg viewBox="0 0 24 24" fill="none" xmlns="http://www.w3.org/2000/svg" id="Eye--Streamline-Solar-Ar">
  <desc>
    Eye Streamline Icon: https://streamlinehq.com
  </desc>
  <path d="M3.27489 15.2957C2.42496 14.1915 2 13.6394 2 12s0.42496 -2.19147 1.27489 -3.29567C4.97196 6.49956 7.81811 4 12 4c4.1819 0 7.028 2.49956 8.7251 4.70433C21.575 9.80853 22 10.3606 22 12s-0.425 2.1915 -1.2749 3.2957C19.028 17.5004 16.1819 20 12 20c-4.18189 0 -7.02804 -2.4996 -8.72511 -4.7043Z" stroke="#000000" stroke-width="1"></path>
  <path d="M15 12c0 1.6569 -1.3431 3 -3 3s-3 -1.3431 -3 -3 1.3431 -3 3 -3 3 1.3431 3 3Z" stroke="#000000" stroke-width="1"></path>
</svg>
