<svg xmlns="http://www.w3.org/2000/svg" viewBox="0 0 24 24" fill="#000000" aria-hidden="true" id="Flag--Streamline-Heroicons">
  <desc>
    Flag Streamline Icon: https://streamlinehq.com
  </desc>
  <path fill-rule="evenodd" d="M3 2.25a0.75 0.75 0 0 1 0.75 0.75v0.54l1.838 -0.46a9.75 9.75 0 0 1 6.725 0.738l0.108 0.054A8.25 8.25 0 0 0 18 4.524l3.11 -0.732a0.75 0.75 0 0 1 0.917 0.81 47.784 47.784 0 0 0 0.005 10.337 0.75 0.75 0 0 1 -0.574 0.812l-3.114 0.733a9.75 9.75 0 0 1 -6.594 -0.77l-0.108 -0.054a8.25 8.25 0 0 0 -5.69 -0.625l-2.202 0.55V21a0.75 0.75 0 0 1 -1.5 0V3A0.75 0.75 0 0 1 3 2.25Z" clip-rule="evenodd" stroke-width="1"></path>
</svg>
