<svg viewBox="0 0 24 24" fill="none" xmlns="http://www.w3.org/2000/svg" id="Grid--Streamline-Unicons">
  <desc>
    Grid Streamline Icon: https://streamlinehq.com
  </desc>
  <path d="M22.584 0.24H1.416C1.1041 0.24 0.805 0.3639 0.5844 0.5844 0.3639 0.805 0.24 1.1041 0.24 1.416v21.168c0 0.3119 0.1239 0.611 0.3444 0.8316 0.2206 0.2205 0.5197 0.3444 0.8316 0.3444h21.168c0.3119 0 0.611 -0.1239 0.8316 -0.3444s0.3444 -0.5197 0.3444 -0.8316V1.416c0 -0.3119 -0.1239 -0.611 -0.3444 -0.8316C23.1951 0.3639 22.8959 0.24 22.584 0.24Zm-11.76 21.168H2.592v-4.704h8.232v4.704Zm0 -7.056H2.592V9.648h8.232v4.704Zm10.584 7.056h-8.232v-4.704h8.232v4.704Zm0 -7.056h-8.232V9.648h8.232v4.704Zm0 -7.056H2.592V2.592h18.816v4.704Z" fill="#000000" stroke-width="1"></path>
</svg>
