<svg viewBox="0 0 24 24" fill="none" xmlns="http://www.w3.org/2000/svg" id="Lightning--Streamline-Solar-Ar">
  <desc>
    Lightning Streamline Icon: https://streamlinehq.com
  </desc>
  <path d="M13.2 8h-2.4c-2.26274 0 -3.39411 0 -4.09706 0.69229C6 9.38459 6 10.4988 6 12.7273v2.5454c0 2.2285 0 3.3427 0.70294 4.035C7.40589 20 8.53726 20 10.8 20h2.4M10.8 8h2.4c2.2627 0 3.3941 0 4.0971 0.69229C18 9.38459 18 10.4988 18 12.7273v2.5454c0 2.2285 0 3.3427 -0.7029 4.035C16.5941 20 15.4627 20 13.2 20h-2.4" stroke="#000000" stroke-linecap="round" stroke-width="1"></path>
  <path d="M12 20v2" stroke="#000000" stroke-linecap="round" stroke-width="1"></path>
  <path d="m12 12 -1.5 2h3L12 16" stroke="#000000" stroke-linecap="round" stroke-linejoin="round" stroke-width="1"></path>
  <path d="M11 5h2" stroke="#000000" stroke-linecap="round" stroke-width="1"></path>
  <path d="M15.5 8V5.5c0 -1.40446 0 -2.10669 -0.3371 -2.61114 -0.1459 -0.21838 -0.3334 -0.40588 -0.5518 -0.5518C14.1067 2 13.4045 2 12 2s-2.10669 0 -2.61114 0.33706c-0.21838 0.14592 -0.40588 0.33342 -0.5518 0.5518C8.5 3.39331 8.5 4.09554 8.5 5.5V8" stroke="#000000" stroke-width="1"></path>
</svg>
