<svg xmlns="http://www.w3.org/2000/svg" fill="none" viewBox="0 0 24 24" id="Microphone-7--Streamline-Solar">
  <desc>
    Microphone 7 Streamline Icon: https://streamlinehq.com
  </desc>
  <g id="Bold Duotone/Video Audio Sound/Microphone 7">
    <path id="Vector" fill="#737374" d="M9.75 7.75C9.75 7.33579 9.41421 7 9 7H6.29847C6.66598 4.17873 9.07855 2 12 2c2.9214 0 5.334 2.17873 5.7015 5H13.5c-0.4142 0 -0.75 0.33579 -0.75 0.75s0.3358 0.75 0.75 0.75h4.25V10H13.5c-0.4142 0 -0.75 0.3358 -0.75 0.75s0.3358 0.75 0.75 0.75h4.2015c-0.3675 2.8213 -2.7801 5 -5.7015 5 -2.92145 0 -5.33402 -2.1787 -5.70153 -5H9c0.41421 0 0.75 -0.3358 0.75 -0.75S9.41421 10 9 10H6.25V8.5H9c0.41421 0 0.75 -0.33579 0.75 -0.75Z" stroke-width="1"></path>
    <path id="Vector_2" fill="#000000" fill-rule="evenodd" d="M4 9c0.41421 0 0.75 0.33579 0.75 0.75v1C4.75 14.7541 7.99594 18 12 18c4.0041 0 7.25 -3.2459 7.25 -7.25v-1c0 -0.41421 0.3358 -0.75 0.75 -0.75s0.75 0.33579 0.75 0.75v1c0 4.5798 -3.5186 8.3379 -8 8.7183V21.75c0 0.4142 -0.3358 0.75 -0.75 0.75s-0.75 -0.3358 -0.75 -0.75v-2.2817c-4.4814 -0.3804 -8 -4.1385 -8 -8.7183v-1c0 -0.41421 0.33579 -0.75 0.75 -0.75Z" clip-rule="evenodd" stroke-width="1"></path>
    <path id="Vector_3" fill="#000000" d="M12.75 10.75c0 0.4142 0.3358 0.75 0.75 0.75h4.2015L17.75 10H13.5c-0.4142 0 -0.75 0.3358 -0.75 0.75Z" stroke-width="1"></path>
    <path id="Vector_4" fill="#000000" d="M12.75 7.75c0 0.41421 0.3358 0.75 0.75 0.75h4.25L17.7015 7H13.5c-0.4142 0 -0.75 0.33579 -0.75 0.75Z" stroke-width="1"></path>
    <path id="Vector_5" fill="#000000" d="M9.75 7.75C9.75 7.33579 9.41421 7 9 7H6.29847L6.25 8.5H9c0.41421 0 0.75 -0.33579 0.75 -0.75Z" stroke-width="1"></path>
    <path id="Vector_6" fill="#000000" d="M9.75 10.75c0 -0.4142 -0.33579 -0.75 -0.75 -0.75H6.25l0.04847 1.5H9c0.41421 0 0.75 -0.3358 0.75 -0.75Z" stroke-width="1"></path>
  </g>
</svg>
