<svg xmlns="http://www.w3.org/2000/svg" viewBox="0 0 256 256" fill="#000000" id="Presentation--Streamline-Phosphor">
  <desc>
    Presentation Streamline Icon: https://streamlinehq.com
  </desc>
  <path d="M230.2084 30.435h-92.9167V11.8517c0 -7.1528 -7.7431 -11.6232 -13.9375 -8.0469 -2.8749 1.6598 -4.6459 4.7273 -4.6459 8.0469V30.435H25.7916C15.528 30.4345 7.2083 38.7547 7.2083 49.0183v139.3751c0 10.2633 8.32 18.5834 18.5833 18.5834h45.715l-25.0991 31.3593c-4.4704 5.5881 -1.2152 13.9201 5.8594 14.9976 3.2834 0.5 6.5841 -0.7895 8.6589 -3.383l34.3675 -42.9739h65.4134l34.3676 42.9739c4.4704 5.5881 13.3137 4.2412 15.9179 -2.4243 1.2086 -3.0935 0.675 -6.5968 -1.3997 -9.1903l-25.0991 -31.3593h45.715c10.2633 0 18.5833 -8.3201 18.5833 -18.5834V49.0184c0 -10.2633 -8.32 -18.5834 -18.5833 -18.5834Zm0 157.9584H25.7916V49.0184h204.4168v139.375Z" stroke-width="1"></path>
</svg>
