<svg xmlns="http://www.w3.org/2000/svg" fill="none" viewBox="0 0 24 24">
  <g id="Shield">
    <path id="Union" fill="#000000" d="M11.7236 2.03903c0.2106 -0.06056 0.4361 -0.05039 0.6416 0.03028l7 2.75 0.1377 0.0664c0.3044 0.17705 0.4971 0.5046 0.4971 0.86426V11.25c-0.0001 4.903 -3.0925 9.1031 -7.6719 10.6943 -0.2125 0.0739 -0.4437 0.0739 -0.6562 0C7.09253 20.3531 4.00006 16.153 4 11.25V5.74997l0.01172 -0.15234c0.05354 -0.34795 0.28838 -0.64683 0.62305 -0.77832l7.00003 -2.75zM6 6.43064V11.25c0.00006 3.9099 2.38495 7.2836 6 8.6846 3.615 -1.401 5.9999 -4.7747 6 -8.6846V6.43064l-6 -2.35743z" stroke-width="1"></path>
  </g>
</svg>
